<svg id="Layer_1" data-name="Layer 1" xmlns="http://www.w3.org/2000/svg" xmlns:xlink="http://www.w3.org/1999/xlink" viewBox="0 0 3366 2956"><defs><style>.cls-1,.cls-3,.cls-5{fill:#c47d4e;}.cls-1{clip-rule:evenodd;}.cls-2{fill:#fff;}.cls-3{fill-rule:evenodd;}.cls-4{clip-path:url(#clip-path);}</style><clipPath id="clip-path"><path class="cls-1" d="M2739.89,1644.83c0-586-475.06-1061.09-1061.08-1061.09S617.73,1058.81,617.73,1644.83s475.06,1061.08,1061.08,1061.08,1061.08-475.07,1061.08-1061.08M1678.82,1260.45a123.81,123.81,0,1,1,123.81-123.81A123.81,123.81,0,0,1,1678.82,1260.45Zm-145.7,302.39-248.77-308.68-136.44-169.29,385.21,186.58,145.7,196.25,145.68-196.25,385.21-186.58-136.44,169.29L1824.5,1562.84l-145.68,753.89Z"/></clipPath></defs><title>Монтажная область 3</title><rect class="cls-2" x="1061.8" y="944.01" width="1276.01" height="1532.49"/><path class="cls-3" d="M2739.89,1644.83c0-586-475.06-1061.09-1061.08-1061.09S617.73,1058.81,617.73,1644.83s475.06,1061.08,1061.08,1061.08,1061.08-475.07,1061.08-1061.08M1678.82,1260.45a123.81,123.81,0,1,1,123.81-123.81A123.81,123.81,0,0,1,1678.82,1260.45Zm-145.7,302.39-248.77-308.68-136.44-169.29,385.21,186.58,145.7,196.25,145.68-196.25,385.21-186.58-136.44,169.29L1824.5,1562.84l-145.68,753.89Z"/><g class="cls-4"><rect class="cls-5" x="617.73" y="583.74" width="2122.17" height="2122.17"/></g><path class="cls-5" d="M687.17,921.33l-2-1.81,11-17.41-132.59-120-15.69,11.7-2-1.81,32.48-35.91,172.4,54.58-5.37-.12,5.27-5.82.81,4.75-82-154.08,32.3-35.7,2,1.81-8.65,14.8L827.92,756.49l13.85-10.07,2,1.81L799.68,797l-2-1.81,9.37-15.6L690.91,674.49l-2.72,3,81.37,152.77-13.43,14.84L587.86,792.82,585,796l55.76,50.45A166.79,166.79,0,0,0,657,859.36a132.7,132.7,0,0,0,18.35,10.76,82.1,82.1,0,0,0,19.19,6.6,47.76,47.76,0,0,0,19,.21,42,42,0,0,0,17.6-8.16l2,1.81Z"/><path class="cls-5" d="M825.6,588.14q16.9-13.51,33.4-15.61a55.21,55.21,0,0,1,31.3,4.93q14.81,7,26.62,21.83L833.46,666l-1.69-2.12,60.05-51.8q-11.15-13.94-22.16-21.24t-21.59-7.5q-10.55-.23-20.28,7.55A35.26,35.26,0,0,0,815,610.44q-2.85,11.61,2.27,26.23t18.61,31.53a82.09,82.09,0,0,0,17.86,16.71,70,70,0,0,0,20.65,9.81,47,47,0,0,0,21.33,1.13,44.67,44.67,0,0,0,20.12-9.49A59.63,59.63,0,0,0,927,674.7a55.16,55.16,0,0,0,7.44-14.08,57.58,57.58,0,0,0,3.2-15.72,62.59,62.59,0,0,0-1.36-17.08l3.8.42a79.27,79.27,0,0,1,1.76,23.87,62.94,62.94,0,0,1-5.12,20,69.77,69.77,0,0,1-10.32,16.55,96.75,96.75,0,0,1-13.82,13.47q-12.67,10.14-26.15,13.64a65.18,65.18,0,0,1-51-7.34,76.91,76.91,0,0,1-20.58-18.17,79.13,79.13,0,0,1-14.44-26.73,69.78,69.78,0,0,1-2.71-27.44,64.34,64.34,0,0,1,8.57-25.89A79.37,79.37,0,0,1,825.6,588.14Z"/><path class="cls-5" d="M1117.12,558.8l1.38,2.32-52.92,31.66-1.39-2.32L1076,580.22l-46.38-77.53q-8.33-13.92-17.37-18T994,486.22A26.62,26.62,0,0,0,983.9,497.6a69.25,69.25,0,0,0-5.73,17.29,120.31,120.31,0,0,0-2.27,19.65,132.12,132.12,0,0,0,.53,18.27l38.32,64.07,14.62-5.59,1.39,2.32-51.53,30.82-1.39-2.32,11.38-10L926.73,527.7l-14.16,8.47L911,533.61,946,502l22.77,38.07,2.83.51A133.76,133.76,0,0,1,973.33,511a68.3,68.3,0,0,1,8.91-24.08A50.19,50.19,0,0,1,999.41,470q9.27-5.55,17.28-6.4a30.54,30.54,0,0,1,15.15,2.13,41.87,41.87,0,0,1,13.44,9.3,81.56,81.56,0,0,1,12,15.83l44.3,74.05Z"/><path class="cls-5" d="M1085,420.94l-2.49-2.12a54.86,54.86,0,0,0,5-6.53,43.52,43.52,0,0,0,3.75-7,27.24,27.24,0,0,0,1.92-6.43l-3.48-1.05-2.45,1.14a21.24,21.24,0,0,1-9.86,2.23,15.93,15.93,0,0,1-8.4-2.64,16.32,16.32,0,0,1-5.76-6.86,15.1,15.1,0,0,1-1.34-8.93,16.73,16.73,0,0,1,3.78-8.19,22.64,22.64,0,0,1,8-6,21.51,21.51,0,0,1,9.74-2.17A16.74,16.74,0,0,1,1092,369a15.62,15.62,0,0,1,5.88,6.8,28,28,0,0,1,2.68,11.14,37.67,37.67,0,0,1-1.57,11.64,46.31,46.31,0,0,1-5.32,11.6A61.66,61.66,0,0,1,1085,420.94Z"/><path class="cls-5" d="M1258,508a115.09,115.09,0,0,1-22.22,5.75,70.82,70.82,0,0,1-20,.35,38.47,38.47,0,0,1-15.59-5.29,21.07,21.07,0,0,1-8.83-10.89,13.49,13.49,0,0,1-.17-9.58,19.63,19.63,0,0,1,5.62-7.93,28.06,28.06,0,0,1,9-5.28,29.89,29.89,0,0,1,10.26-1.85,19.35,19.35,0,0,1,9.08,2,11.23,11.23,0,0,1,5.47,6.36,13.12,13.12,0,0,1,.65,7,20.61,20.61,0,0,1-3,7.14,33.36,33.36,0,0,0-3.93,6.6,6.13,6.13,0,0,0-.15,4.37c.5,1.36,2.17,2.28,5,2.78a38.07,38.07,0,0,0,11.29-.21,74.28,74.28,0,0,0,15.13-3.9,66.56,66.56,0,0,0,19-10.2q7.58-6.06,10.52-13.45t-.21-16a20.43,20.43,0,0,0-8.39-10.48q-6-3.87-17.17-5.29t-29.28-.61q-20.27.44-33-1.84t-19.7-7.53a28.77,28.77,0,0,1-9.89-13.39q-5.62-15.51,6.45-30.25t38.26-24.22a91,91,0,0,1,27.58-5.67q13.32-.53,23.15,3.55T1276,383.25a12.44,12.44,0,0,1,.11,9,17.64,17.64,0,0,1-5.55,7.33,29.93,29.93,0,0,1-8.73,4.89,33.56,33.56,0,0,1-7.82,1.83,26.94,26.94,0,0,1-7.54-.15,14.3,14.3,0,0,1-6.27-2.62,11.62,11.62,0,0,1-4-5.58q-2.49-6.87,3.29-14.72a26.68,26.68,0,0,0,4-6.35,5.59,5.59,0,0,0,.33-3.86c-.31-.84-1.32-1.53-3-2.06a20.33,20.33,0,0,0-6.69-.59,54.94,54.94,0,0,0-8.91,1.21,76.29,76.29,0,0,0-10.14,3,79,79,0,0,0-19.43,9.91q-8,5.77-11.27,12.57a17.3,17.3,0,0,0-.71,13.93q2.31,6.36,9.21,10.32t18,5.27a190.31,190.31,0,0,0,26.51.9q21.46-.3,34.65,1.54t20.27,6.32a24.3,24.3,0,0,1,10,12.62,33.17,33.17,0,0,1,1.5,18.44,39.68,39.68,0,0,1-8,16.72,67.43,67.43,0,0,1-15.76,14.06A104.82,104.82,0,0,1,1258,508Z"/><path class="cls-5" d="M1484.18,251.69q22.48-3.3,38.58.21t25.51,13.61q9.42,10.1,11.82,26.43,3.84,26.22-14.21,43.77t-54.73,23q-9.37,1.36-18.83,2.08t-17.92.85l-.9-6.15q12.13,2.6,31.94-.32,24.35-3.58,35.67-18.64t7.82-38.87q-2.23-15.25-9.26-24.89a37.47,37.47,0,0,0-18.26-13.58q-11.25-4-26.5-1.72-6.69,1-13.21,2.22T1450,261.9a47,47,0,0,0-8.28,2.31l26,177.16,16.84,1.08.39,2.68-63.42,9.32-.4-2.68L1437,445.9l-26-177.17-16.84-1.08-.39-2.67Z"/><path class="cls-5" d="M1655.54,434.25a114.94,114.94,0,0,1-22.89-1.77,70.9,70.9,0,0,1-19.05-6.16,38.34,38.34,0,0,1-13-10.05,21.12,21.12,0,0,1-4.82-13.17,13.44,13.44,0,0,1,3-9.11,19.53,19.53,0,0,1,7.88-5.69,28.17,28.17,0,0,1,10.24-2.07,30,30,0,0,1,10.31,1.58,19.31,19.31,0,0,1,7.93,4.87,11.16,11.16,0,0,1,3.11,7.79,13,13,0,0,1-1.64,6.79,20.56,20.56,0,0,1-5.17,5.77,33.19,33.19,0,0,0-5.87,5,6.17,6.17,0,0,0-1.55,4.09c0,1.44,1.31,2.86,3.86,4.26a38.27,38.27,0,0,0,10.75,3.46,74.13,74.13,0,0,0,15.58,1.22,66.71,66.71,0,0,0,21.31-3.48,33,33,0,0,0,14.31-9.32q5.18-6,5-15.23a20.47,20.47,0,0,0-4.55-12.64q-4.43-5.6-14.52-10.57t-27.5-10.07q-19.32-6.15-30.65-12.45t-16.2-13.51a28.77,28.77,0,0,1-5-15.88q-.28-16.49,15.9-26.52t44-10.5a91.05,91.05,0,0,1,27.93,3.57q12.78,3.84,20.75,10.86t8.13,16.77a12.43,12.43,0,0,1-2.82,8.57,17.75,17.75,0,0,1-7.62,5.14,30.17,30.17,0,0,1-9.84,1.79,34,34,0,0,1-8-.8,27.09,27.09,0,0,1-7.08-2.59,14.38,14.38,0,0,1-5.08-4.51,11.57,11.57,0,0,1-2-6.59q-.12-7.31,7.89-12.85a27.25,27.25,0,0,0,5.87-4.7A5.61,5.61,0,0,0,1686,302c0-.9-.75-1.88-2.21-2.93a20.35,20.35,0,0,0-6.14-2.74,55.76,55.76,0,0,0-8.82-1.74,76.87,76.87,0,0,0-10.56-.49,79,79,0,0,0-21.59,3.08q-9.42,2.88-14.73,8.24a17.24,17.24,0,0,0-5.19,12.94q.12,6.76,5.36,12.75t15.34,10.83a189.3,189.3,0,0,0,24.79,9.44q20.4,6.69,32.28,12.69t17.12,12.56a24.26,24.26,0,0,1,5.41,15.19,33.22,33.22,0,0,1-4.56,17.93,39.61,39.61,0,0,1-13,13.21,67.32,67.32,0,0,1-19.47,8.19A104.33,104.33,0,0,1,1655.54,434.25Z"/><path class="cls-5" d="M1760.38,490.35q-9.95-1-16.35-4.92a25.15,25.15,0,0,1-9.48-9.79,22.4,22.4,0,0,1-2.36-12.89,14.2,14.2,0,0,1,2.48-7.09,15.26,15.26,0,0,1,5.35-4.48,25.17,25.17,0,0,1,7-2.41,26.49,26.49,0,0,1,7.78-.3,25,25,0,0,1,8.72,2.51,17.07,17.07,0,0,1,6.52,5.42,11.77,11.77,0,0,1,1.89,8.21,22.45,22.45,0,0,1-1.79,6.89,23.41,23.41,0,0,1-3.56,5.62c-1.26,1.68-2.25,3-3,3.91a5,5,0,0,0-1.2,2.46c-.13,1.25,1.78,2.09,5.73,2.49q4.85.48,10.34-2.76a37.08,37.08,0,0,0,10.54-10.08,88.49,88.49,0,0,0,9.21-14.43q5.19-9.66,10.78-21.88l-14.53-1.47L1755.4,300.9,1739,296.51l.28-2.69,65.12,6.6-.27,2.69-16.66.76L1818,412.46l3.23.33,29.1-61.76a49.72,49.72,0,0,0,2.47-6.95,46.92,46.92,0,0,0,1.48-7.87,39.88,39.88,0,0,0-.23-9.81,26.74,26.74,0,0,0-3.13-9.29,20.86,20.86,0,0,0-7.27-7.4q-4.86-3.07-12.66-3.87l.27-2.69,59.74,6.06-.27,2.69-17.23,1-60.72,124.34q-7.24,15-12.88,25.07t-9,14a39.57,39.57,0,0,1-13.1,11.18Q1770.34,491.36,1760.38,490.35Z"/><path class="cls-5" d="M1948.36,463.82q-19.54-4.38-32.76-16.49a63.31,63.31,0,0,1-18.31-29.61q-5.08-17.49-.59-37.55a77.5,77.5,0,0,1,12-27.95A67.38,67.38,0,0,1,1929,333.08a68.16,68.16,0,0,1,27-9.19,97.71,97.71,0,0,1,51.69,8.68,70.41,70.41,0,0,1,16.21,10.56,37.94,37.94,0,0,1,10,13.34,24,24,0,0,1,1.32,15.13,13.86,13.86,0,0,1-5.07,8.42,19.28,19.28,0,0,1-9.53,3.55,35.83,35.83,0,0,1-12-.76,33.73,33.73,0,0,1-15.6-7.65,13.15,13.15,0,0,1-4.34-13.45,13.72,13.72,0,0,1,5.64-8.44c3-2.11,6.79-3.28,11.46-3.53q10.8-1.17,11.39-3.82.48-2.1-2.45-5.12a31.56,31.56,0,0,0-8.94-5.89,71.56,71.56,0,0,0-15-4.88,43,43,0,0,0-21.29.36,49.9,49.9,0,0,0-18.72,9.93A65.33,65.33,0,0,0,1936.19,358a84,84,0,0,0-9.07,23.75,89.38,89.38,0,0,0-2.19,27.09,63.22,63.22,0,0,0,5.8,22.37A45.6,45.6,0,0,0,1944,447.59a50,50,0,0,0,20.11,9.22,59.11,59.11,0,0,0,21.41.92,56.41,56.41,0,0,0,37-21.64l2,3.23a83.7,83.7,0,0,1-18,16.62,61.24,61.24,0,0,1-19,8.5,68.82,68.82,0,0,1-19.57,2A110.13,110.13,0,0,1,1948.36,463.82Z"/><path class="cls-5" d="M2183.85,531.8l-.94,2.54-55.09-20.26.94-2.53,13.88,2.22L2173.81,429q5.61-15.24,3.07-24.81t-12.68-13.31a26.56,26.56,0,0,0-15.17-.68,69.18,69.18,0,0,0-17.06,6.41,119.84,119.84,0,0,0-16.71,10.57,108.74,108.74,0,0,0-13.63,12l-25.76,70.07,12,7.3-.93,2.54-55.09-20.26.93-2.54,15.15,2.69,63.48-172.63-15.74-5.79,1-2.79,46.84,7.42-36.77,100,1.37,2.52a120.87,120.87,0,0,1,23.94-17.28,70.62,70.62,0,0,1,24.34-8.2,49.28,49.28,0,0,1,23.79,2.7q10.15,3.74,16,9.47a29.24,29.24,0,0,1,7.86,13.12,43.21,43.21,0,0,1,1.08,16.25,81.83,81.83,0,0,1-4.78,19.28l-29.78,81Z"/><path class="cls-5" d="M2322,450.42q14.82,7.86,24,18.56a58.83,58.83,0,0,1,12.56,23.35,63.86,63.86,0,0,1,1.17,26.65,91.71,91.71,0,0,1-10,28.56,83.44,83.44,0,0,1-17.31,22.81A64.77,64.77,0,0,1,2310,583.84a59.07,59.07,0,0,1-26.26,2.74Q2269.86,585,2254.8,577q-15.28-8.12-24.47-18.81a58.81,58.81,0,0,1-12.55-23.35,62.73,62.73,0,0,1-1.3-26.11,85.45,85.45,0,0,1,9.31-27.06,86.87,86.87,0,0,1,18.31-24.11,65.64,65.64,0,0,1,23.09-13.78,60.46,60.46,0,0,1,26.38-2.68Q2307.45,442.69,2322,450.42Zm-1.65,3.11q-11.7-6.22-23.65-2.46t-23.25,15.53q-11.29,11.76-20.69,29.44a143.42,143.42,0,0,0-10.39,24.49,72.22,72.22,0,0,0-3.57,22.3,38.7,38.7,0,0,0,4.45,18.44,31.12,31.12,0,0,0,13.18,12.67,30.08,30.08,0,0,0,17.52,3.63,40.75,40.75,0,0,0,17.7-6.52,71,71,0,0,0,16.71-15.33A136.67,136.67,0,0,0,2323,533.33a145.17,145.17,0,0,0,10.85-25.63,80.08,80.08,0,0,0,3.83-22.77,38.65,38.65,0,0,0-4.21-18.62A30.53,30.53,0,0,0,2320.37,453.53Z"/><path class="cls-5" d="M2372.74,636.89l10.94,10.44-1.49,2.26-49.93-32.88,1.49-2.26,14.14,6.07,101.17-153.61-14-9.22,1.64-2.49,43.91,17.92Z"/><path class="cls-5" d="M2539,593.64q13.07,10.53,20,22.77a59,59,0,0,1,7.91,25.31,63.69,63.69,0,0,1-3.91,26.39,91.78,91.78,0,0,1-15.18,26.15,83.16,83.16,0,0,1-21.33,19.11,64.4,64.4,0,0,1-24.62,9,59.08,59.08,0,0,1-26.31-2.28q-13.32-4.16-26.59-14.85-13.48-10.86-20.46-23.1a58.76,58.76,0,0,1-7.91-25.32,63,63,0,0,1,3.67-25.88,85.72,85.72,0,0,1,14.27-24.8,87.1,87.1,0,0,1,22.56-20.21,65.76,65.76,0,0,1,25.27-9.15,60.56,60.56,0,0,1,26.42,2.36A79.79,79.79,0,0,1,2539,593.64Zm-2.2,2.74q-10.32-8.32-22.77-6.89t-25.77,10.84q-13.32,9.4-25.88,25a142.67,142.67,0,0,0-14.86,22.07,72.44,72.44,0,0,0-7.72,21.22,38.65,38.65,0,0,0,.87,18.95,31.07,31.07,0,0,0,10.54,14.93,30,30,0,0,0,16.52,6.89,40.78,40.78,0,0,0,18.62-3,71.16,71.16,0,0,0,19.31-11.88,137.12,137.12,0,0,0,18.62-19.21,145.94,145.94,0,0,0,15.51-23.11,80.16,80.16,0,0,0,8.07-21.64,38.69,38.69,0,0,0-.6-19.07A30.65,30.65,0,0,0,2536.76,596.38Z"/><path class="cls-5" d="M2517.47,840.13a97,97,0,0,1-14.72-20,79.66,79.66,0,0,1-7.83-19.75,46.73,46.73,0,0,1-1.11-17.16q1.09-7.72,5.62-12a18.27,18.27,0,0,1,9.62-5,18.77,18.77,0,0,1,10.39,1.17,26.45,26.45,0,0,1,9.37,6.59q6.68,7.09,7.61,14.39a13.4,13.4,0,0,1-4.19,12.12q-4.14,3.9-8.17,4.54a19.12,19.12,0,0,1-8-.43,36.11,36.11,0,0,1-7.28-2.8,49.71,49.71,0,0,0-5.85-2.66c-1.7-.63-2.88-.63-3.54,0-1.31,1.23-1.36,3.69-.13,7.36a60.43,60.43,0,0,0,6.51,12.82,98,98,0,0,0,11.34,14.41q10.76,11.41,22.07,16.92t21.39,4.75a28.35,28.35,0,0,0,17.75-8,26.06,26.06,0,0,0,8.28-14.87q1.39-8.39-3.16-19.14t-15.51-25.14a431.76,431.76,0,0,0-28.76-33.3l3-2.78,43.82,6.29.47,3.64-25.55-3.05-1,2.45q15.21,16.14,25.9,29.67a170.53,170.53,0,0,1,16.77,24.9,82.1,82.1,0,0,1,8.09,20.62,32.17,32.17,0,0,1-.3,16.64,31,31,0,0,1-8.63,13.32q-10.64,10-24,9.62t-28.69-9.75Q2533.61,857.26,2517.47,840.13Zm78.83-64.23a110.28,110.28,0,0,1-15.82-21.14,76.1,76.1,0,0,1-8.45-21.4,42.76,42.76,0,0,1,.22-20.08,35.81,35.81,0,0,1,10.55-17.2,41.64,41.64,0,0,1,18.39-10.26,51.54,51.54,0,0,1,21.55-.79,67.77,67.77,0,0,1,22.53,8.32,92.75,92.75,0,0,1,21.3,17.1,86.54,86.54,0,0,1,14.68,20.91,77.53,77.53,0,0,1,7.36,22.8,50.47,50.47,0,0,1-1.33,22.06,41,41,0,0,1-11.55,18.5,37.26,37.26,0,0,1-15.48,8.82,42,42,0,0,1-19.06.68q-10.28-1.85-21.74-8.88A115.58,115.58,0,0,1,2596.3,775.9Zm2.93-2q8.16,8.65,17.27,11.42a31.81,31.81,0,0,0,18.56,0q9.45-2.78,18.12-10.94a70,70,0,0,0,15.44-20.49,42.41,42.41,0,0,0,4.47-21.49q-.74-10.64-9.08-19.5a31.81,31.81,0,0,0-18.92-10.23,41.46,41.46,0,0,0-21.91,3,70,70,0,0,0-21.38,14.19,44.51,44.51,0,0,0-11.8,17.26,32.13,32.13,0,0,0-1,18.81Q2591.25,765.41,2599.23,773.88Zm78-43-6.83-14.75a54.93,54.93,0,0,0,9.24,7.83,81.71,81.71,0,0,0,10.91,6.26q5.74,2.76,11.23,5l10.3,4.23,8.42,3.41-8.59,18.49-31.53-33.47Z"/><path class="cls-5" d="M2598.31,930.79q-6-8-7.43-15.38a25.23,25.23,0,0,1,.81-13.61,22.45,22.45,0,0,1,7.89-10.45,14.26,14.26,0,0,1,6.91-3,15.14,15.14,0,0,1,6.92.91,25.55,25.55,0,0,1,6.54,3.56,26.81,26.81,0,0,1,5.48,5.52,25.38,25.38,0,0,1,4,8.13,17.07,17.07,0,0,1,.42,8.47,11.8,11.8,0,0,1-4.78,6.94,22.22,22.22,0,0,1-6.28,3.34,23.35,23.35,0,0,1-6.55,1.17c-2.09.21-3.72.36-4.9.45a5.05,5.05,0,0,0-2.62.78c-1,.76-.33,2.72,2,5.9q2.91,3.9,9,5.76a37,37,0,0,0,14.55.95,88.48,88.48,0,0,0,16.86-3q10.64-2.71,23.41-6.85l-8.74-11.7L2734.53,799l-7.86-15,2.16-1.62L2768,834.79l-2.17,1.62L2754,824.64l-59.33,96,1.94,2.6,65.18-20.31a49.33,49.33,0,0,0,6.8-2.89,46.24,46.24,0,0,0,6.79-4.23,40.24,40.24,0,0,0,7.08-6.8,26.77,26.77,0,0,0,4.72-8.59,20.91,20.91,0,0,0,.54-10.36q-1-5.65-5.71-11.94l2.16-1.62,35.93,48.11-2.16,1.62-12.37-12-132.67,39.32q-16,4.85-27.17,7.47t-16.45,2.83a39.44,39.44,0,0,1-17.1-2.09Q2604.3,938.8,2598.31,930.79Z"/></svg>