<svg width="107" height="30" viewBox="0 0 107 30" fill="none" xmlns="http://www.w3.org/2000/svg">
<path d="M106.999 14.9933C106.999 18.0718 106.443 20.7322 105.331 22.9746C104.22 25.2169 102.695 26.9462 100.756 28.1624C98.8179 29.3785 96.6041 29.9866 94.1147 29.9866C91.6253 29.9866 89.4115 29.3785 87.4732 28.1624C85.5349 26.9462 84.0099 25.2169 82.8982 22.9746C81.7865 20.7322 81.2307 18.0718 81.2307 14.9933C81.2307 11.9148 81.7865 9.25443 82.8982 7.01208C84.0099 4.76974 85.5349 3.04047 87.4732 1.82428C89.4115 0.608094 91.6253 0 94.1147 0C96.6041 0 98.8179 0.608094 100.756 1.82428C102.695 3.04047 104.22 4.76974 105.331 7.01208C106.443 9.25443 106.999 11.9148 106.999 14.9933ZM103.578 14.9933C103.578 12.4659 103.155 10.3328 102.31 8.59408C101.474 6.85531 100.338 5.53936 98.9034 4.64622C97.4782 3.75308 95.882 3.30651 94.1147 3.30651C92.3474 3.30651 90.7464 3.75308 89.3117 4.64622C87.8865 5.53936 86.7511 6.85531 85.9054 8.59408C85.0693 10.3328 84.6512 12.4659 84.6512 14.9933C84.6512 17.5207 85.0693 19.6538 85.9054 21.3926C86.7511 23.1313 87.8865 24.4473 89.3117 25.3404C90.7464 26.2336 92.3474 26.6801 94.1147 26.6801C95.882 26.6801 97.4782 26.2336 98.9034 25.3404C100.338 24.4473 101.474 23.1313 102.31 21.3926C103.155 19.6538 103.578 17.5207 103.578 14.9933Z" fill="#C47D4E"/>
<path d="M72.4976 9.52047C72.184 8.56082 71.7707 7.70094 71.2576 6.94082C70.754 6.1712 70.1507 5.5156 69.4476 4.97402C68.754 4.43244 67.9654 4.01912 67.0817 3.73408C66.1981 3.44903 65.2289 3.30651 64.1743 3.30651C62.445 3.30651 60.8725 3.75308 59.4568 4.64622C58.0411 5.53936 56.9151 6.85531 56.079 8.59408C55.2429 10.3328 54.8248 12.4659 54.8248 14.9933C54.8248 17.5207 55.2476 19.6538 56.0933 21.3926C56.9389 23.1313 58.0838 24.4473 59.5281 25.3404C60.9723 26.2336 62.597 26.6801 64.4023 26.6801C66.0746 26.6801 67.5473 26.3238 68.8205 25.6112C70.1032 24.8891 71.1008 23.8724 71.8134 22.5612C72.5356 21.2405 72.8966 19.687 72.8966 17.9008L73.9798 18.1288H65.2004V14.9933H76.3171V18.1288C76.3171 20.5327 75.8041 22.623 74.7779 24.3998C73.7612 26.1765 72.355 27.5543 70.5593 28.5329C68.773 29.5021 66.7207 29.9866 64.4023 29.9866C61.8179 29.9866 59.5471 29.3785 57.5898 28.1624C55.642 26.9462 54.1217 25.2169 53.029 22.9746C51.9459 20.7322 51.4043 18.0718 51.4043 14.9933C51.4043 12.6845 51.7131 10.6084 52.3307 8.76511C52.9578 6.91232 53.8414 5.33508 54.9816 4.03337C56.1218 2.73167 57.471 1.73402 59.0292 1.04041C60.5875 0.346804 62.3025 0 64.1743 0C65.7135 0 67.1482 0.232787 68.4784 0.698359C69.8181 1.15443 71.0106 1.80528 72.0557 2.65091C73.1104 3.48704 73.9893 4.48944 74.6924 5.65812C75.3955 6.8173 75.8801 8.10475 76.1461 9.52047H72.4976Z" fill="#C47D4E"/>
<path d="M46.6015 14.9933C46.6015 18.0718 46.0456 20.7322 44.934 22.9746C43.8223 25.2169 42.2973 26.9462 40.359 28.1624C38.4207 29.3785 36.2069 29.9866 33.7175 29.9866C31.2281 29.9866 29.0143 29.3785 27.076 28.1624C25.1377 26.9462 23.6127 25.2169 22.501 22.9746C21.3893 20.7322 20.8335 18.0718 20.8335 14.9933C20.8335 11.9148 21.3893 9.25443 22.501 7.01208C23.6127 4.76974 25.1377 3.04047 27.076 1.82428C29.0143 0.608094 31.2281 0 33.7175 0C36.2069 0 38.4207 0.608094 40.359 1.82428C42.2973 3.04047 43.8223 4.76974 44.934 7.01208C46.0456 9.25443 46.6015 11.9148 46.6015 14.9933ZM43.181 14.9933C43.181 12.4659 42.7581 10.3328 41.9125 8.59408C41.0764 6.85531 39.9409 5.53936 38.5062 4.64622C37.081 3.75308 35.4848 3.30651 33.7175 3.30651C31.9502 3.30651 30.3492 3.75308 28.9145 4.64622C27.4893 5.53936 26.3538 6.85531 25.5082 8.59408C24.6721 10.3328 24.254 12.4659 24.254 14.9933C24.254 17.5207 24.6721 19.6538 25.5082 21.3926C26.3538 23.1313 27.4893 24.4473 28.9145 25.3404C30.3492 26.2336 31.9502 26.6801 33.7175 26.6801C35.4848 26.6801 37.081 26.2336 38.5062 25.3404C39.9409 24.4473 41.0764 23.1313 41.9125 21.3926C42.7581 19.6538 43.181 17.5207 43.181 14.9933Z" fill="#C47D4E"/>
<path d="M0.534668 29.5876V0.399048H4.06921V26.4521H17.6373V29.5876H0.534668Z" fill="#C47D4E"/>
</svg>
