<svg width="13" height="13" viewBox="0 0 13 13" fill="none" xmlns="http://www.w3.org/2000/svg">
<g clip-path="url(#clip0_278_943)">
<path d="M9.92315 0.0363569C9.59432 0.1212 9.78403 -0.05091 5.32962 4.21306C1.98564 7.4177 1.13068 8.24916 1.10032 8.32673C1.02444 8.52551 0 12.0016 0 12.0598C0 12.2222 0.1973 12.4113 0.364245 12.4113C0.450248 12.4113 4.15594 11.4005 4.28747 11.3423C4.3583 11.3108 5.65845 10.0793 8.56735 7.29165C13.0243 3.01556 12.8245 3.21676 12.913 2.89193C12.9813 2.64467 12.9484 2.36833 12.8219 2.12592C12.7486 1.98532 10.9122 0.220588 10.7503 0.135744C10.5024 0.00726795 10.1862 -0.031517 9.92315 0.0363569ZM10.3532 0.761159C10.3987 0.780551 10.8161 1.16356 11.2992 1.62656C12.2174 2.51377 12.2174 2.51377 12.1795 2.71012C12.1668 2.78527 12.0859 2.87254 11.7166 3.2313L11.2688 3.66037L10.2014 2.6374L9.13143 1.61201L9.55638 1.20477C9.78909 0.979326 10.0142 0.780551 10.0547 0.761159C10.1533 0.719949 10.252 0.719949 10.3532 0.761159ZM9.67526 3.15131L10.7376 4.16942L7.43667 7.33286L4.1357 10.4963L3.06826 9.47332L1.99829 8.44794L5.29167 5.29178C7.10531 3.55371 8.59265 2.13319 8.60023 2.13319C8.60782 2.13319 9.09095 2.59134 9.67526 3.15131ZM2.52948 9.99935C3.00755 10.4575 3.39456 10.8381 3.3895 10.8429C3.36927 10.8575 0.953614 11.5144 0.943496 11.5071C0.933378 11.495 1.62899 9.16304 1.64416 9.16304C1.65175 9.16304 2.04888 9.53877 2.52948 9.99935Z" fill="#C47D4E"/>
</g>
<defs>
<clipPath id="clip0_278_943">
<rect width="12.9509" height="12.4113" fill="white"/>
</clipPath>
</defs>
</svg>
