<svg width="24" height="23" viewBox="0 0 24 23" fill="none" xmlns="http://www.w3.org/2000/svg">
<g clip-path="url(#clip0_278_936)">
<path d="M18.3891 0.0673828C17.7797 0.224609 18.1312 -0.0943356 9.87656 7.80742C3.67969 13.7461 2.09531 15.2869 2.03906 15.4307C1.89844 15.799 0 22.2408 0 22.3486C0 22.6496 0.365625 23 0.675 23C0.834375 23 7.70156 21.1268 7.94531 21.0189C8.07656 20.9605 10.4859 18.6785 15.8766 13.5125C24.1359 5.58828 23.7656 5.96113 23.9297 5.35918C24.0562 4.90098 23.9953 4.38887 23.7609 3.93965C23.625 3.6791 20.2219 0.408789 19.9219 0.251562C19.4625 0.0134773 18.8766 -0.0583973 18.3891 0.0673828ZM19.1859 1.41055C19.2703 1.44649 20.0437 2.15625 20.9391 3.01426C22.6406 4.6584 22.6406 4.6584 22.5703 5.02227C22.5469 5.16152 22.3969 5.32324 21.7125 5.98809L20.8828 6.7832L18.9047 4.8875L16.9219 2.9873L17.7094 2.23262C18.1406 1.81484 18.5578 1.44649 18.6328 1.41055C18.8156 1.33418 18.9984 1.33418 19.1859 1.41055ZM17.9297 5.83984L19.8984 7.72656L13.7812 13.5889L7.66406 19.4512L5.68594 17.5555L3.70312 15.6553L9.80625 9.80645C13.1672 6.58555 15.9234 3.95312 15.9375 3.95312C15.9516 3.95312 16.8469 4.80215 17.9297 5.83984ZM4.6875 18.5303C5.57344 19.3793 6.29062 20.0846 6.28125 20.0936C6.24375 20.1205 1.76719 21.3379 1.74844 21.3244C1.72969 21.302 3.01875 16.9805 3.04687 16.9805C3.06094 16.9805 3.79687 17.6768 4.6875 18.5303Z" fill="#C47D4E"/>
</g>
<defs>
<clipPath id="clip0_278_936">
<rect width="24" height="23" fill="white"/>
</clipPath>
</defs>
</svg>
